<mxfile host="app.diagrams.net" modified="2024-04-30T12:42:06.441Z" agent="Mozilla/5.0 (Macintosh; Intel Mac OS X 10_15_7) AppleWebKit/605.1.15 (KHTML, like Gecko) Version/17.3.1 Safari/605.1.15" etag="5TTQ6u6TkW3pHSXg1nqU" version="24.2.1" type="device">
  <diagram name="Page-1" id="AKeDoq1XJMMahOroyEB8">
    <mxGraphModel dx="1864" dy="1267" grid="0" gridSize="10" guides="1" tooltips="1" connect="1" arrows="1" fold="1" page="0" pageScale="1" pageWidth="827" pageHeight="1169" math="0" shadow="0">
      <root>
        <mxCell id="0" />
        <mxCell id="1" parent="0" />
        <mxCell id="kIap8I_95Ls6VTSSkTCm-1" value="User" style="shape=umlActor;verticalLabelPosition=bottom;verticalAlign=top;html=1;outlineConnect=0;" parent="1" vertex="1">
          <mxGeometry x="21" y="-64" width="30" height="60" as="geometry" />
        </mxCell>
        <mxCell id="kIap8I_95Ls6VTSSkTCm-2" value="" style="rounded=0;whiteSpace=wrap;html=1;" parent="1" vertex="1">
          <mxGeometry x="86.13" y="-64" width="623.87" height="724" as="geometry" />
        </mxCell>
        <mxCell id="kIap8I_95Ls6VTSSkTCm-27" value="" style="edgeStyle=none;curved=1;rounded=0;orthogonalLoop=1;jettySize=auto;html=1;fontSize=12;startSize=8;endSize=8;" parent="1" source="kIap8I_95Ls6VTSSkTCm-3" target="kIap8I_95Ls6VTSSkTCm-1" edge="1">
          <mxGeometry relative="1" as="geometry">
            <Array as="points">
              <mxPoint x="91" y="41" />
            </Array>
          </mxGeometry>
        </mxCell>
        <mxCell id="P78f_-Wmb6Qu9MgQJtnO-29" style="edgeStyle=none;curved=1;rounded=0;orthogonalLoop=1;jettySize=auto;html=1;exitX=1;exitY=0.3333333333333333;exitDx=0;exitDy=0;exitPerimeter=0;entryX=0;entryY=0.5;entryDx=0;entryDy=0;fontSize=12;startSize=8;endSize=8;" edge="1" parent="1" source="kIap8I_95Ls6VTSSkTCm-3" target="P78f_-Wmb6Qu9MgQJtnO-19">
          <mxGeometry relative="1" as="geometry" />
        </mxCell>
        <mxCell id="kIap8I_95Ls6VTSSkTCm-3" value="private individual&lt;div&gt;&lt;br&gt;&lt;/div&gt;" style="shape=umlActor;verticalLabelPosition=bottom;verticalAlign=top;html=1;outlineConnect=0;" parent="1" vertex="1">
          <mxGeometry x="21" y="97" width="30" height="60" as="geometry" />
        </mxCell>
        <mxCell id="kIap8I_95Ls6VTSSkTCm-28" value="" style="edgeStyle=none;curved=1;rounded=0;orthogonalLoop=1;jettySize=auto;html=1;fontSize=12;startSize=8;endSize=8;" parent="1" source="kIap8I_95Ls6VTSSkTCm-5" target="kIap8I_95Ls6VTSSkTCm-1" edge="1">
          <mxGeometry relative="1" as="geometry">
            <Array as="points">
              <mxPoint x="-46" y="136" />
            </Array>
          </mxGeometry>
        </mxCell>
        <mxCell id="kIap8I_95Ls6VTSSkTCm-42" value="" style="edgeStyle=none;curved=1;rounded=0;orthogonalLoop=1;jettySize=auto;html=1;fontSize=12;startSize=8;endSize=8;entryX=0;entryY=0.5;entryDx=0;entryDy=0;" parent="1" source="kIap8I_95Ls6VTSSkTCm-5" target="kIap8I_95Ls6VTSSkTCm-14" edge="1">
          <mxGeometry relative="1" as="geometry" />
        </mxCell>
        <mxCell id="kIap8I_95Ls6VTSSkTCm-43" value="" style="edgeStyle=none;curved=1;rounded=0;orthogonalLoop=1;jettySize=auto;html=1;fontSize=12;startSize=8;endSize=8;entryX=0;entryY=0.5;entryDx=0;entryDy=0;" parent="1" source="kIap8I_95Ls6VTSSkTCm-5" target="kIap8I_95Ls6VTSSkTCm-13" edge="1">
          <mxGeometry relative="1" as="geometry" />
        </mxCell>
        <mxCell id="kIap8I_95Ls6VTSSkTCm-44" value="" style="edgeStyle=none;curved=1;rounded=0;orthogonalLoop=1;jettySize=auto;html=1;fontSize=12;startSize=8;endSize=8;entryX=0;entryY=0.5;entryDx=0;entryDy=0;" parent="1" source="kIap8I_95Ls6VTSSkTCm-5" target="kIap8I_95Ls6VTSSkTCm-12" edge="1">
          <mxGeometry relative="1" as="geometry" />
        </mxCell>
        <mxCell id="kIap8I_95Ls6VTSSkTCm-45" value="" style="edgeStyle=none;curved=1;rounded=0;orthogonalLoop=1;jettySize=auto;html=1;fontSize=12;startSize=8;endSize=8;entryX=0;entryY=0.5;entryDx=0;entryDy=0;" parent="1" source="kIap8I_95Ls6VTSSkTCm-5" target="kIap8I_95Ls6VTSSkTCm-16" edge="1">
          <mxGeometry relative="1" as="geometry" />
        </mxCell>
        <mxCell id="P78f_-Wmb6Qu9MgQJtnO-25" style="edgeStyle=none;curved=1;rounded=0;orthogonalLoop=1;jettySize=auto;html=1;exitX=1;exitY=0.3333333333333333;exitDx=0;exitDy=0;exitPerimeter=0;entryX=0.5;entryY=0;entryDx=0;entryDy=0;fontSize=12;startSize=8;endSize=8;" edge="1" parent="1" source="kIap8I_95Ls6VTSSkTCm-5" target="P78f_-Wmb6Qu9MgQJtnO-18">
          <mxGeometry relative="1" as="geometry">
            <Array as="points">
              <mxPoint x="421" y="33" />
            </Array>
          </mxGeometry>
        </mxCell>
        <mxCell id="kIap8I_95Ls6VTSSkTCm-5" value="Agency" style="shape=umlActor;verticalLabelPosition=bottom;verticalAlign=top;html=1;outlineConnect=0;" parent="1" vertex="1">
          <mxGeometry x="21" y="258" width="30" height="60" as="geometry" />
        </mxCell>
        <mxCell id="kIap8I_95Ls6VTSSkTCm-30" value="" style="edgeStyle=none;curved=1;rounded=0;orthogonalLoop=1;jettySize=auto;html=1;fontSize=12;startSize=8;endSize=8;" parent="1" source="kIap8I_95Ls6VTSSkTCm-6" target="kIap8I_95Ls6VTSSkTCm-1" edge="1">
          <mxGeometry relative="1" as="geometry">
            <Array as="points">
              <mxPoint x="-119" y="129" />
            </Array>
          </mxGeometry>
        </mxCell>
        <mxCell id="P78f_-Wmb6Qu9MgQJtnO-26" style="edgeStyle=none;curved=1;rounded=0;orthogonalLoop=1;jettySize=auto;html=1;exitX=1;exitY=1;exitDx=0;exitDy=0;exitPerimeter=0;entryX=0.5;entryY=1;entryDx=0;entryDy=0;fontSize=12;startSize=8;endSize=8;" edge="1" parent="1" source="kIap8I_95Ls6VTSSkTCm-6" target="P78f_-Wmb6Qu9MgQJtnO-18">
          <mxGeometry relative="1" as="geometry">
            <Array as="points">
              <mxPoint x="318" y="587" />
            </Array>
          </mxGeometry>
        </mxCell>
        <mxCell id="P78f_-Wmb6Qu9MgQJtnO-28" style="edgeStyle=none;curved=1;rounded=0;orthogonalLoop=1;jettySize=auto;html=1;exitX=1;exitY=0.3333333333333333;exitDx=0;exitDy=0;exitPerimeter=0;entryX=0.5;entryY=1;entryDx=0;entryDy=0;fontSize=12;startSize=8;endSize=8;" edge="1" parent="1" source="kIap8I_95Ls6VTSSkTCm-6" target="kIap8I_95Ls6VTSSkTCm-16">
          <mxGeometry relative="1" as="geometry">
            <Array as="points">
              <mxPoint x="257" y="557" />
            </Array>
          </mxGeometry>
        </mxCell>
        <mxCell id="kIap8I_95Ls6VTSSkTCm-6" value="&lt;div&gt;Providers&lt;/div&gt;" style="shape=umlActor;verticalLabelPosition=bottom;verticalAlign=top;html=1;outlineConnect=0;" parent="1" vertex="1">
          <mxGeometry x="21" y="419" width="30" height="60" as="geometry" />
        </mxCell>
        <mxCell id="kIap8I_95Ls6VTSSkTCm-24" style="edgeStyle=none;curved=1;rounded=0;orthogonalLoop=1;jettySize=auto;html=1;exitX=0.5;exitY=0.5;exitDx=0;exitDy=0;exitPerimeter=0;fontSize=12;startSize=8;endSize=8;" parent="1" source="kIap8I_95Ls6VTSSkTCm-7" target="kIap8I_95Ls6VTSSkTCm-19" edge="1">
          <mxGeometry relative="1" as="geometry">
            <Array as="points">
              <mxPoint x="112" y="623" />
            </Array>
          </mxGeometry>
        </mxCell>
        <mxCell id="kIap8I_95Ls6VTSSkTCm-29" value="" style="edgeStyle=none;curved=1;rounded=0;orthogonalLoop=1;jettySize=auto;html=1;fontSize=12;startSize=8;endSize=8;" parent="1" source="kIap8I_95Ls6VTSSkTCm-7" target="kIap8I_95Ls6VTSSkTCm-1" edge="1">
          <mxGeometry relative="1" as="geometry">
            <mxPoint x="-11" y="419" as="targetPoint" />
            <Array as="points">
              <mxPoint x="-203" y="67" />
            </Array>
          </mxGeometry>
        </mxCell>
        <mxCell id="kIap8I_95Ls6VTSSkTCm-7" value="Admin" style="shape=umlActor;verticalLabelPosition=bottom;verticalAlign=top;html=1;outlineConnect=0;" parent="1" vertex="1">
          <mxGeometry x="21" y="580" width="30" height="60" as="geometry" />
        </mxCell>
        <mxCell id="kIap8I_95Ls6VTSSkTCm-11" value="Log in" style="ellipse;whiteSpace=wrap;html=1;" parent="1" vertex="1">
          <mxGeometry x="206" y="-49" width="175" height="44" as="geometry" />
        </mxCell>
        <mxCell id="kIap8I_95Ls6VTSSkTCm-12" value="Analyze data to make sure sensors functions correctly" style="ellipse;whiteSpace=wrap;html=1;" parent="1" vertex="1">
          <mxGeometry x="208.5" y="56" width="172.5" height="52" as="geometry" />
        </mxCell>
        <mxCell id="P78f_-Wmb6Qu9MgQJtnO-9" value="&amp;lt;&amp;lt;include&amp;gt;&amp;gt;" style="edgeStyle=none;curved=1;rounded=0;orthogonalLoop=1;jettySize=auto;html=1;exitX=1;exitY=0.5;exitDx=0;exitDy=0;fontSize=12;startSize=8;endSize=8;&#xa;endArrow=none;dashed=1;html=1;rounded=0;fontSize=12;startSize=8;endSize=8;curved=1;" edge="1" parent="1" source="kIap8I_95Ls6VTSSkTCm-13" target="kIap8I_95Ls6VTSSkTCm-17">
          <mxGeometry x="0.2126" y="-16" relative="1" as="geometry">
            <Array as="points">
              <mxPoint x="446" y="146" />
            </Array>
            <mxPoint y="1" as="offset" />
          </mxGeometry>
        </mxCell>
        <mxCell id="kIap8I_95Ls6VTSSkTCm-13" value="Produce statistics on air quality" style="ellipse;whiteSpace=wrap;html=1;" parent="1" vertex="1">
          <mxGeometry x="206" y="126" width="175" height="52" as="geometry" />
        </mxCell>
        <mxCell id="P78f_-Wmb6Qu9MgQJtnO-14" style="edgeStyle=none;curved=1;rounded=0;orthogonalLoop=1;jettySize=auto;html=1;exitX=0.5;exitY=1;exitDx=0;exitDy=0;entryX=0.5;entryY=0;entryDx=0;entryDy=0;fontSize=12;startSize=8;endSize=8;&#xa;endArrow=none;dashed=1;html=1;rounded=0;fontSize=12;startSize=8;endSize=8;curved=1;" edge="1" parent="1" source="kIap8I_95Ls6VTSSkTCm-14" target="kIap8I_95Ls6VTSSkTCm-18">
          <mxGeometry relative="1" as="geometry" />
        </mxCell>
        <mxCell id="P78f_-Wmb6Qu9MgQJtnO-17" value="&amp;lt;&amp;lt;include&amp;gt;&amp;gt;" style="edgeLabel;html=1;align=center;verticalAlign=middle;resizable=0;points=[];fontSize=12;" vertex="1" connectable="0" parent="P78f_-Wmb6Qu9MgQJtnO-14">
          <mxGeometry x="0.0847" y="-1" relative="1" as="geometry">
            <mxPoint x="41" y="-6" as="offset" />
          </mxGeometry>
        </mxCell>
        <mxCell id="kIap8I_95Ls6VTSSkTCm-14" value="Select score rank sensors at a specific :&amp;nbsp;&lt;div&gt;-time&lt;div&gt;&amp;nbsp;-place&lt;/div&gt;&lt;/div&gt;" style="ellipse;whiteSpace=wrap;html=1;" parent="1" vertex="1">
          <mxGeometry x="169.875" y="199" width="247.25" height="86" as="geometry" />
        </mxCell>
        <mxCell id="kIap8I_95Ls6VTSSkTCm-16" value="Observe the impact of cleaners on air qualit&lt;span style=&quot;white-space: pre;&quot;&gt;y&lt;/span&gt;" style="ellipse;whiteSpace=wrap;html=1;" parent="1" vertex="1">
          <mxGeometry x="171.125" y="437" width="247.25" height="75" as="geometry" />
        </mxCell>
        <mxCell id="kIap8I_95Ls6VTSSkTCm-17" value="Grant points for data sharing" style="ellipse;whiteSpace=wrap;html=1;" parent="1" vertex="1">
          <mxGeometry x="435.005" y="56" width="247.25" height="75" as="geometry" />
        </mxCell>
        <mxCell id="kIap8I_95Ls6VTSSkTCm-18" value="Classify individuals unreliable" style="ellipse;whiteSpace=wrap;html=1;" parent="1" vertex="1">
          <mxGeometry x="169.875" y="344" width="247.25" height="75" as="geometry" />
        </mxCell>
        <mxCell id="kIap8I_95Ls6VTSSkTCm-19" value="Manage settings&amp;nbsp;" style="ellipse;whiteSpace=wrap;html=1;" parent="1" vertex="1">
          <mxGeometry x="169.875" y="562" width="247.25" height="75" as="geometry" />
        </mxCell>
        <mxCell id="kIap8I_95Ls6VTSSkTCm-25" style="edgeStyle=none;curved=1;rounded=0;orthogonalLoop=1;jettySize=auto;html=1;exitX=0.5;exitY=0.5;exitDx=0;exitDy=0;exitPerimeter=0;fontSize=12;startSize=8;endSize=8;" parent="1" source="kIap8I_95Ls6VTSSkTCm-1" target="kIap8I_95Ls6VTSSkTCm-11" edge="1">
          <mxGeometry relative="1" as="geometry">
            <Array as="points">
              <mxPoint x="122" y="-50" />
            </Array>
          </mxGeometry>
        </mxCell>
        <mxCell id="P78f_-Wmb6Qu9MgQJtnO-18" value="Add Cleaner" style="ellipse;whiteSpace=wrap;html=1;" vertex="1" parent="1">
          <mxGeometry x="455.995" y="431" width="247.25" height="75" as="geometry" />
        </mxCell>
        <mxCell id="P78f_-Wmb6Qu9MgQJtnO-19" value="Add sensor" style="ellipse;whiteSpace=wrap;html=1;" vertex="1" parent="1">
          <mxGeometry x="205" y="2" width="177" height="48" as="geometry" />
        </mxCell>
        <mxCell id="P78f_-Wmb6Qu9MgQJtnO-30" style="edgeStyle=none;curved=1;rounded=0;orthogonalLoop=1;jettySize=auto;html=1;exitX=0.75;exitY=0.1;exitDx=0;exitDy=0;exitPerimeter=0;entryX=0.068;entryY=0.75;entryDx=0;entryDy=0;entryPerimeter=0;fontSize=12;startSize=8;endSize=8;" edge="1" parent="1" source="kIap8I_95Ls6VTSSkTCm-5" target="P78f_-Wmb6Qu9MgQJtnO-19">
          <mxGeometry relative="1" as="geometry" />
        </mxCell>
      </root>
    </mxGraphModel>
  </diagram>
</mxfile>
